<svg width="20" height="20" viewBox="0 0 20 20" fill="none" xmlns="http://www.w3.org/2000/svg">
<rect width="20" height="20" rx="10" fill="#EDF2F9"/>
<path d="M10.0003 10.4795L12.0771 12.5562C12.2122 12.6913 12.4306 12.6913 12.5657 12.5562C12.7008 12.4211 12.7008 12.2027 12.5657 12.0676L10.4889 9.99086L12.5657 7.91416C12.7008 7.77901 12.7008 7.56066 12.5657 7.42558C12.4306 7.29043 12.2122 7.29043 12.0771 7.42558L10.0003 9.50227L7.92349 7.42558C7.7884 7.29043 7.56998 7.29043 7.4349 7.42558C7.36751 7.4929 7.33366 7.58142 7.33366 7.66987C7.33366 7.75832 7.36751 7.84678 7.4349 7.91416L9.51169 9.99086L7.4349 12.0676C7.36751 12.135 7.33366 12.2234 7.33366 12.3119C7.33366 12.4004 7.36751 12.4888 7.4349 12.5562C7.56998 12.6913 7.7884 12.6913 7.92349 12.5562L10.0003 10.4795Z" fill="#223347"/>
</svg>
