<svg width="22" height="22" viewBox="0 0 22 22" fill="none" xmlns="http://www.w3.org/2000/svg">
<path d="M20.7059 17.9443H19.9294C19.9294 17.8012 19.9294 7.51506 19.9294 7.16H21.3529C22.0132 7.16 22.2478 6.28177 21.676 5.95229L11.642 0.171115C11.246 -0.0570382 10.754 -0.0570382 10.3579 0.171115L0.324047 5.95229C-0.248039 6.2819 -0.0129412 7.16 0.647059 7.16H2.07059V17.9443H1.29412C0.580541 17.9443 0 18.5249 0 19.2384V20.7051C0 21.4187 0.580541 21.9992 1.29412 21.9992H20.7059C21.4195 21.9992 22 21.4187 22 20.7051V19.2384C22 18.5249 21.4195 17.9443 20.7059 17.9443ZM11 1.29475L18.9338 5.86588C16.5447 5.86588 4.98261 5.86588 3.06624 5.86588L11 1.29475ZM18.6353 16.4776V17.9443H3.36471V16.4776H18.6353ZM3.36471 15.1835V7.16H4.83137V15.1835H3.36471ZM6.12549 15.1835V7.16H8.97255V15.1835H6.12549ZM10.2667 15.1835V7.16H11.7333V15.1835H10.2667ZM13.0275 15.1835V7.16H15.8745V15.1835H13.0275ZM17.1686 15.1835V7.16H18.6353V15.1835H17.1686ZM20.7059 20.7051H1.29412V19.2384H20.7059C20.7067 20.7376 20.7102 20.7051 20.7059 20.7051Z" fill="#FFB1B9"/>
</svg>
