<svg width="50" height="50" viewBox="0 0 50 50" fill="none" xmlns="http://www.w3.org/2000/svg">
<g clip-path="url(#clip0)">
<path d="M41.2671 18.6294V29.9823C41.2671 30.3073 41.1057 30.611 40.836 30.7922L25.5036 41.1144C25.1736 41.3364 24.7422 41.3364 24.4126 41.1144L9.08018 30.7922C8.81049 30.611 8.64874 30.3073 8.64874 29.9823V18.6294" fill="#F7F7FF"/>
<path d="M25.4356 1.09988L47.4639 13.4572C48.1288 13.8303 48.1288 14.7874 47.4639 15.1604L25.4356 27.5177C25.1389 27.6844 24.7768 27.6844 24.4801 27.5177L2.45215 15.1604C1.78687 14.7874 1.78687 13.8303 2.45215 13.4572L24.4801 1.09988C24.7768 0.933178 25.1389 0.933178 25.4356 1.09988Z" fill="#DBD8FF"/>
<path d="M27.8763 14.3086C27.8763 13.0143 26.5644 11.9648 24.9466 11.9648C23.3284 11.9648 22.0165 13.0143 22.0165 14.3086C22.0165 15.6033 23.3284 16.6527 24.9466 16.6527C26.5644 16.6527 27.8763 15.6033 27.8763 14.3086Z" fill="#CCC8FF"/>
<path d="M10.183 49.0235H15.6521V34.2312C15.6521 32.721 14.428 31.4968 12.9177 31.4968C11.4075 31.4968 10.183 32.721 10.183 34.2312V49.0235Z" fill="#CCC8FF"/>
<path d="M12.9177 31.4968C11.4075 31.4968 10.183 32.721 10.183 34.2312V37.7796H15.6521V34.2312C15.6521 32.721 14.428 31.4968 12.9177 31.4968Z" fill="#E9E7FF"/>
<path d="M47.9415 12.6053L25.9136 0.24805C25.3239 -0.0826833 24.5915 -0.0826833 24.0021 0.24805L1.97416 12.6053C1.35886 12.9506 0.976624 13.6033 0.976624 14.3086C0.976624 15.0143 1.35886 15.667 1.97416 16.0122L7.67217 19.2086V29.9824C7.67217 30.6336 7.99489 31.239 8.53467 31.6025L9.69967 32.3868C9.38649 32.9308 9.20681 33.5602 9.20681 34.2316V49.0234C9.20681 49.5628 9.64398 50 10.1834 50H15.6521C16.1915 50 16.6287 49.5628 16.6287 49.0234V37.0514L23.8674 41.9247C24.1985 42.1478 24.5785 42.2592 24.958 42.2592C25.3376 42.2592 25.7176 42.1478 26.0487 41.9247L41.3814 31.6025C41.9212 31.239 42.2439 30.6332 42.2439 29.9824V19.2086L47.9419 16.0122C48.5572 15.667 48.9395 15.0143 48.9395 14.3086C48.9395 13.6033 48.5572 12.9506 47.9415 12.6053V12.6053ZM9.62529 20.3045L11.9412 21.6034V30.6515C11.6513 30.7308 11.3755 30.8441 11.1184 30.9872L9.62529 29.9824V20.3045ZM14.6756 35.2116V35.223V36.8031H11.1596V34.2316C11.1596 33.2623 11.9484 32.4734 12.9177 32.4734C13.8871 32.4734 14.6756 33.2623 14.6756 34.2316V35.2116ZM11.1596 48.0468V38.7562H14.6756V48.0468H11.1596ZM40.2904 29.9824L25.9346 39.6469V35.5984C25.9346 35.0594 25.4974 34.6218 24.958 34.6218C24.4186 34.6218 23.9815 35.0594 23.9815 35.5984V39.6469L16.6287 34.697V34.2312C16.6287 32.523 15.4682 31.0814 13.8943 30.6515V22.699L24.0025 28.3695C24.297 28.5347 24.6273 28.6175 24.958 28.6175C25.2884 28.6175 25.6188 28.5347 25.9136 28.3695L40.2904 20.3045V29.9824ZM40.8905 17.7281C40.823 17.7563 40.76 17.7926 40.7013 17.8345L24.958 26.6659L14.9506 21.0522L22.4293 16.8454C23.1098 17.334 23.988 17.6293 24.9466 17.6293C27.1004 17.6293 28.8528 16.1397 28.8528 14.309C28.8528 12.4779 27.1004 10.9883 24.9466 10.9883C22.7924 10.9883 21.04 12.4779 21.04 14.309C21.04 14.6496 21.101 14.9785 21.2135 15.2882L12.9559 19.9334L9.21483 17.8345C9.15608 17.7926 9.09276 17.7567 9.02524 17.7285L2.92974 14.309L24.9577 1.95169L46.986 14.3086L40.8905 17.7281ZM22.9931 14.309C22.9931 13.5678 23.8876 12.9418 24.9466 12.9418C26.0052 12.9418 26.8997 13.5678 26.8997 14.309C26.8997 15.0502 26.0052 15.6762 24.9466 15.6762C23.8876 15.6762 22.9931 15.0502 22.9931 14.309Z" fill="#8378FF"/>
<path d="M24.9581 30.7163C24.701 30.7163 24.4492 30.8197 24.2676 31.0013C24.086 31.184 23.9815 31.435 23.9815 31.6917C23.9815 31.9496 24.086 32.2006 24.2676 32.3833C24.4492 32.5649 24.701 32.6683 24.9581 32.6683C25.2148 32.6683 25.4669 32.5649 25.6485 32.3833C25.8301 32.2006 25.9346 31.9496 25.9346 31.6917C25.9346 31.435 25.8301 31.1832 25.6485 31.0013C25.4669 30.8197 25.2148 30.7163 24.9581 30.7163Z" fill="#E9E7FF"/>
</g>
<defs>
<clipPath id="clip0">
<rect width="50" height="50" fill="white"/>
</clipPath>
</defs>
</svg>
