<svg width="13" height="13" viewBox="0 0 13 13" fill="none" xmlns="http://www.w3.org/2000/svg">
<path d="M11.9787 6.22917H10.9063C10.6651 4.06016 8.93935 2.33437 6.77034 2.09323V1.02083C6.77034 0.733333 6.53701 0.5 6.24951 0.5C5.96201 0.5 5.72868 0.733333 5.72868 1.02083V2.09323C3.55967 2.33437 1.83389 4.06016 1.59274 6.22917H0.520345C0.232845 6.22917 -0.000488281 6.4625 -0.000488281 6.75C-0.000488281 7.0375 0.232845 7.27083 0.520345 7.27083H1.59274C1.83389 9.43984 3.55967 11.1656 5.72868 11.4068V12.4792C5.72868 12.7667 5.96201 13 6.24951 13C6.53701 13 6.77034 12.7667 6.77034 12.4792V11.4068C8.93935 11.1656 10.6651 9.43984 10.9063 7.27083H11.9787C12.2662 7.27083 12.4995 7.0375 12.4995 6.75C12.4995 6.4625 12.2662 6.22917 11.9787 6.22917ZM6.24951 10.3958C4.23909 10.3958 2.60368 8.76042 2.60368 6.75C2.60368 4.73958 4.23909 3.10417 6.24951 3.10417C8.25993 3.10417 9.89534 4.73958 9.89534 6.75C9.89534 8.76042 8.25993 10.3958 6.24951 10.3958Z" fill="#2C7BE5"/>
</svg>
