<svg width="24" height="17" viewBox="0 0 24 17" fill="none" xmlns="http://www.w3.org/2000/svg">
<path d="M21.0664 1H2.93359C1.86741 1 1 1.86323 1 2.92427V14.0757C1 15.1368 1.86741 16 2.93359 16H21.0664C22.1326 16 23 15.1368 23 14.0757V2.92427C23 1.86323 22.1326 1 21.0664 1ZM20.8141 2.28285L20.556 2.4967L12.7672 8.95118C12.3226 9.31953 11.6773 9.31953 11.2328 8.95118L3.44402 2.4967L3.18595 2.28285H20.8141ZM2.28906 3.20898L8.6352 8.46793L2.28906 12.6711V3.20898ZM21.0664 14.7172H2.93359C2.62216 14.7172 2.36168 14.4962 2.302 14.2035L9.66877 9.3244L10.408 9.937C10.8692 10.3192 11.4347 10.5103 12 10.5103C12.5654 10.5103 13.1308 10.3192 13.5921 9.937L14.3313 9.3244L21.698 14.2035C21.6383 14.4962 21.3778 14.7172 21.0664 14.7172ZM21.7109 12.6711L15.3648 8.46797L21.7109 3.20898V12.6711Z" fill="#2C7BE5" fill-opacity="0.7" stroke="#2C7BE5" stroke-opacity="0.7" stroke-width="0.5"/>
</svg>
