<svg width="16" height="16" viewBox="0 0 16 16" fill="none" xmlns="http://www.w3.org/2000/svg">
<path d="M2.04199 8.79151H5.79199V7.54151H2.04199V1.82026C2.042 1.76596 2.05616 1.71259 2.08308 1.66543C2.10999 1.61826 2.14873 1.57893 2.19548 1.55129C2.24223 1.52366 2.29537 1.50869 2.34966 1.50785C2.40396 1.50701 2.45754 1.52033 2.50512 1.54651L14.0439 7.89276C14.0929 7.91973 14.1337 7.95937 14.1622 8.00752C14.1906 8.05567 14.2056 8.11058 14.2056 8.16651C14.2056 8.22244 14.1906 8.27735 14.1622 8.3255C14.1337 8.37365 14.0929 8.41328 14.0439 8.44026L2.50512 14.7865C2.45754 14.8127 2.40396 14.826 2.34966 14.8252C2.29537 14.8243 2.24223 14.8094 2.19548 14.7817C2.14873 14.7541 2.10999 14.7148 2.08308 14.6676C2.05616 14.6204 2.042 14.5671 2.04199 14.5128V8.79151Z" fill="#7488A1"/>
</svg>
