<svg width="24" height="24" viewBox="0 0 24 24" fill="none" xmlns="http://www.w3.org/2000/svg">
<path d="M19.6362 20.3851C19.8351 20.3851 20.0259 20.3061 20.1666 20.1654C20.3072 20.0248 20.3862 19.834 20.3862 19.6351V17.3026C20.9937 17.1397 21.5305 16.781 21.9133 16.2819C22.2962 15.7829 22.5037 15.1716 22.5037 14.5426C22.5037 13.9137 22.2962 13.3023 21.9133 12.8033C21.5305 12.3043 20.9937 11.9455 20.3862 11.7826V4.36511C20.3862 4.1662 20.3072 3.97543 20.1666 3.83478C20.0259 3.69413 19.8351 3.61511 19.6362 3.61511C19.4373 3.61511 19.2465 3.69413 19.1059 3.83478C18.9652 3.97543 18.8862 4.1662 18.8862 4.36511V11.7901C18.2787 11.953 17.742 12.3118 17.3591 12.8108C16.9763 13.3098 16.7688 13.9212 16.7688 14.5501C16.7688 15.1791 16.9763 15.7904 17.3591 16.2894C17.742 16.7885 18.2787 17.1472 18.8862 17.3101V19.6426C18.8882 19.8402 18.9681 20.0291 19.1085 20.1681C19.249 20.3071 19.4386 20.3851 19.6362 20.3851ZM18.2637 14.5426C18.2637 14.2712 18.3442 14.0058 18.495 13.7801C18.6458 13.5544 18.8602 13.3785 19.111 13.2746C19.3618 13.1707 19.6378 13.1435 19.904 13.1965C20.1702 13.2494 20.4148 13.3802 20.6067 13.5721C20.7987 13.7641 20.9294 14.0086 20.9824 14.2749C21.0353 14.5411 21.0081 14.8171 20.9043 15.0678C20.8004 15.3186 20.6245 15.533 20.3987 15.6838C20.173 15.8346 19.9077 15.9151 19.6362 15.9151C19.2722 15.9151 18.9231 15.7705 18.6657 15.5131C18.4083 15.2557 18.2637 14.9066 18.2637 14.5426Z" fill="black"/>
<path d="M12.0012 20.3851C12.2001 20.3851 12.3908 20.3061 12.5315 20.1654C12.6722 20.0248 12.7512 19.834 12.7512 19.6351V9.24009C13.4233 9.05828 14.0066 8.63852 14.3924 8.05887C14.7782 7.47923 14.9404 6.77918 14.8487 6.08893C14.7569 5.39869 14.4176 4.76525 13.8939 4.30645C13.3701 3.84765 12.6975 3.59473 12.0012 3.59473C11.3049 3.59473 10.6323 3.84765 10.1085 4.30645C9.58469 4.76525 9.24539 5.39869 9.15369 6.08893C9.06199 6.77918 9.22413 7.47923 9.60995 8.05887C9.99578 8.63852 10.579 9.05828 11.2512 9.24009V19.6351C11.2512 19.834 11.3302 20.0248 11.4708 20.1654C11.6115 20.3061 11.8023 20.3851 12.0012 20.3851ZM10.6287 6.48759C10.6272 6.21582 10.7064 5.94973 10.8563 5.72303C11.0062 5.49634 11.2201 5.31926 11.4707 5.21423C11.7214 5.1092 11.9976 5.08094 12.2643 5.13305C12.531 5.18516 12.7763 5.31528 12.969 5.50693C13.1617 5.69857 13.2932 5.94311 13.3467 6.20956C13.4003 6.476 13.3736 6.75234 13.2699 7.00357C13.1662 7.2548 12.9903 7.4696 12.7645 7.62075C12.5386 7.77189 12.2729 7.85258 12.0012 7.85259C11.6385 7.85259 11.2905 7.70902 11.0333 7.45325C10.7761 7.19747 10.6307 6.8503 10.6287 6.48759Z" fill="black"/>
<path d="M3.61596 14.7601V19.6351C3.61596 19.834 3.69498 20.0248 3.83563 20.1654C3.97629 20.3061 4.16705 20.3851 4.36596 20.3851C4.56488 20.3851 4.75564 20.3061 4.89629 20.1654C5.03695 20.0248 5.11596 19.834 5.11596 19.6351V14.7601C5.72345 14.5972 6.26022 14.2385 6.64305 13.7394C7.02589 13.2404 7.23339 12.6291 7.23339 12.0001C7.23339 11.3712 7.02589 10.7598 6.64305 10.2608C6.26022 9.76177 5.72345 9.403 5.11596 9.24011V4.36511C5.11596 4.1662 5.03695 3.97543 4.89629 3.83478C4.75564 3.69413 4.56488 3.61511 4.36596 3.61511C4.16705 3.61511 3.97629 3.69413 3.83563 3.83478C3.69498 3.97543 3.61596 4.1662 3.61596 4.36511V9.24011C3.00848 9.403 2.4717 9.76177 2.08887 10.2608C1.70604 10.7598 1.49854 11.3712 1.49854 12.0001C1.49854 12.6291 1.70604 13.2404 2.08887 13.7394C2.4717 14.2385 3.00848 14.5972 3.61596 14.7601ZM4.36596 10.6276C4.63773 10.6261 4.90383 10.7054 5.13052 10.8553C5.35721 11.0052 5.53429 11.219 5.63932 11.4697C5.74435 11.7203 5.77261 11.9965 5.7205 12.2632C5.66839 12.53 5.53827 12.7752 5.34662 12.9679C5.15498 13.1606 4.91044 13.2921 4.644 13.3457C4.37755 13.3992 4.10121 13.3725 3.84998 13.2688C3.59875 13.1652 3.38395 12.9893 3.2328 12.7634C3.08166 12.5375 3.00097 12.2719 3.00096 12.0001C3.00096 11.6374 3.14453 11.2894 3.4003 11.0322C3.65608 10.7751 4.00325 10.6296 4.36596 10.6276Z" fill="black"/>
</svg>
