<svg width="15" height="15" viewBox="0 0 15 15" fill="none" xmlns="http://www.w3.org/2000/svg">
<g clip-path="url(#clip0)">
<path d="M14.9566 0.847547C14.8816 0.688369 14.7214 0.586838 14.5454 0.586838H0.454645C0.278677 0.586838 0.11853 0.688369 0.0434273 0.847547C-0.0316152 1.00672 -0.00809622 1.19488 0.103861 1.33066L5.52055 7.90044V13.9584C5.52055 14.1157 5.60184 14.2618 5.73544 14.3447C5.80866 14.3901 5.89177 14.413 5.97517 14.413C6.04409 14.413 6.11326 14.3973 6.17702 14.3657L9.22042 12.8573C9.37506 12.7807 9.47289 12.6231 9.47313 12.4506L9.47907 7.90063L14.8961 1.33059C15.0081 1.19488 15.0317 1.00666 14.9566 0.847547ZM8.67397 7.44795C8.60699 7.52917 8.57026 7.63119 8.57014 7.73654L8.56432 12.1677L6.42985 13.2257V7.73714C6.42985 7.63161 6.39318 7.52935 6.32602 7.44795L1.41868 1.49602H13.5813L8.67397 7.44795Z" fill="black"/>
</g>
<defs>
<clipPath id="clip0">
<rect width="15" height="15" fill="white"/>
</clipPath>
</defs>
</svg>
