<svg width="20" height="20" viewBox="0 0 20 20" fill="none" xmlns="http://www.w3.org/2000/svg">
<path d="M10 0C4.486 0 0 4.48606 0 10.0001C0 15.5141 4.486 20 10 20C15.514 20 20 15.5141 20 10.0001C20 4.48606 15.514 0 10 0Z" fill="white"/>
<path d="M10 0C4.486 0 0 4.48606 0 10.0001C0 15.5141 4.486 20 10 20C15.514 20 20 15.5141 20 10.0001C20 4.48606 15.514 0 10 0ZM10 18.1818C5.48848 18.1818 1.81818 14.5115 1.81818 10.0001C1.81818 5.48861 5.48848 1.81818 10 1.81818C14.5115 1.81818 18.1818 5.48861 18.1818 10.0001C18.1818 14.5115 14.5115 18.1818 10 18.1818Z" fill="#5B99D2"/>
<path d="M9.99996 4.24243C9.33172 4.24243 8.78809 4.78643 8.78809 5.4551C8.78809 6.12316 9.33172 6.66667 9.99996 6.66667C10.6682 6.66667 11.2118 6.12316 11.2118 5.4551C11.2118 4.78643 10.6682 4.24243 9.99996 4.24243Z" fill="#5B99D2"/>
<path d="M10 8.4848C9.49797 8.4848 9.09094 8.89183 9.09094 9.39389V14.8484C9.09094 15.3505 9.49797 15.7575 10 15.7575C10.5021 15.7575 10.9091 15.3505 10.9091 14.8484V9.39389C10.9091 8.89183 10.5021 8.4848 10 8.4848Z" fill="#5B99D2"/>
</svg>
