<svg width="12" height="12" viewBox="0 0 12 12" fill="none" xmlns="http://www.w3.org/2000/svg">
<path d="M6 0C2.6916 0 0 2.69164 0 6.00004C0 9.30844 2.6916 12 6 12C9.3084 12 12 9.30844 12 6.00004C12 2.69164 9.3084 0 6 0Z" fill="white"/>
<path d="M6 0C2.6916 0 0 2.69164 0 6.00004C0 9.30844 2.6916 12 6 12C9.3084 12 12 9.30844 12 6.00004C12 2.69164 9.3084 0 6 0ZM6 10.9091C3.29309 10.9091 1.09091 8.70691 1.09091 6.00004C1.09091 3.29316 3.29309 1.09091 6 1.09091C8.70691 1.09091 10.9091 3.29316 10.9091 6.00004C10.9091 8.70691 8.70687 10.9091 6 10.9091Z" fill="#DCA330" fill-opacity="0.7"/>
<path d="M6.00008 2.54547C5.59913 2.54547 5.27295 2.87187 5.27295 3.27307C5.27295 3.67391 5.59913 4.00002 6.00008 4.00002C6.40102 4.00002 6.7272 3.67391 6.7272 3.27307C6.7272 2.87187 6.40102 2.54547 6.00008 2.54547Z" fill="#DCA330" fill-opacity="0.7"/>
<path d="M6.00004 5.09088C5.69881 5.09088 5.45459 5.3351 5.45459 5.63634V8.90907C5.45459 9.2103 5.69881 9.45452 6.00004 9.45452C6.30128 9.45452 6.5455 9.2103 6.5455 8.90907V5.63634C6.5455 5.3351 6.30128 5.09088 6.00004 5.09088Z" fill="#DCA330" fill-opacity="0.7"/>
</svg>
