<svg width="36" height="50" viewBox="0 0 36 50" fill="none" xmlns="http://www.w3.org/2000/svg">
<path d="M18 0C8.07475 0 0 8.12325 0 18.108C0 30.4995 16.1082 48.6908 16.7941 49.4591C17.4382 50.1809 18.5629 50.1797 19.2059 49.4591C19.8918 48.6908 36 30.4995 36 18.108C35.9998 8.12325 27.9252 0 18 0ZM18 45.872C12.5788 39.3937 3.24147 26.6125 3.24147 18.1082C3.24147 9.9213 9.86206 3.26094 18 3.26094C26.1379 3.26094 32.7585 9.9213 32.7585 18.1081C32.7584 26.6128 23.4226 39.3916 18 45.872Z" fill="#00B3E3"/>
<path d="M18.0001 8.99744C13.0065 8.99744 8.94397 13.0845 8.94397 18.1081C8.94397 23.1317 13.0066 27.2187 18.0001 27.2187C22.9937 27.2187 27.0562 23.1317 27.0562 18.1081C27.0562 13.0845 22.9937 8.99744 18.0001 8.99744ZM18.0001 23.9578C14.7938 23.9578 12.1854 21.3337 12.1854 18.1081C12.1854 14.8825 14.7939 12.2584 18.0001 12.2584C21.2064 12.2584 23.8148 14.8825 23.8148 18.1081C23.8148 21.3337 21.2064 23.9578 18.0001 23.9578Z" fill="#00B3E3"/>
</svg>
