<svg width="22" height="24" viewBox="0 0 22 24" fill="none" xmlns="http://www.w3.org/2000/svg">
<path d="M11 20.8763L17.05 15.4087C18.2464 14.3273 19.0612 12.9496 19.3912 11.4497C19.7213 9.9499 19.5518 8.3953 18.9042 6.98251C18.2566 5.56972 17.1601 4.3622 15.7531 3.51263C14.3462 2.66306 12.6921 2.20961 11 2.20961C9.30791 2.20961 7.65382 2.66306 6.24688 3.51263C4.83995 4.3622 3.74336 5.56972 3.09578 6.98251C2.44821 8.3953 2.27873 9.9499 2.60878 11.4497C2.93882 12.9496 3.75357 14.3273 4.95 15.4087L11 20.8763ZM11 24L3.22178 16.9705C1.68342 15.5802 0.635783 13.8089 0.211357 11.8805C-0.213069 9.95211 0.00477503 7.95329 0.837343 6.13679C1.66991 4.3203 3.07981 2.76771 4.88874 1.67537C6.69768 0.583034 8.82441 0 11 0C13.1756 0 15.3023 0.583034 17.1113 1.67537C18.9202 2.76771 20.3301 4.3203 21.1627 6.13679C21.9952 7.95329 22.2131 9.95211 21.7886 11.8805C21.3642 13.8089 20.3166 15.5802 18.7782 16.9705L11 24ZM11 12.1502C11.6483 12.1502 12.2701 11.9174 12.7285 11.5031C13.1869 11.0888 13.4444 10.5269 13.4444 9.94104C13.4444 9.35514 13.1869 8.79324 12.7285 8.37894C12.2701 7.96465 11.6483 7.7319 11 7.7319C10.3517 7.7319 9.72994 7.96465 9.27152 8.37894C8.8131 8.79324 8.55556 9.35514 8.55556 9.94104C8.55556 10.5269 8.8131 11.0888 9.27152 11.5031C9.72994 11.9174 10.3517 12.1502 11 12.1502ZM11 14.3593C9.70339 14.3593 8.45988 13.8938 7.54304 13.0652C6.62619 12.2366 6.11111 11.1128 6.11111 9.94104C6.11111 8.76924 6.62619 7.64543 7.54304 6.81684C8.45988 5.98826 9.70339 5.52276 11 5.52276C12.2966 5.52276 13.5401 5.98826 14.457 6.81684C15.3738 7.64543 15.8889 8.76924 15.8889 9.94104C15.8889 11.1128 15.3738 12.2366 14.457 13.0652C13.5401 13.8938 12.2966 14.3593 11 14.3593Z" fill="#2C7BE5" fill-opacity="0.7"/>
</svg>
