<svg width="24" height="24" viewBox="0 0 24 24" fill="none" xmlns="http://www.w3.org/2000/svg">
<path d="M5.4582 15.6241C7.63634 18.218 10.2583 20.2603 13.251 21.7053C14.3904 22.2433 15.9142 22.8815 17.6118 22.9909C17.7171 22.9954 17.8178 23 17.923 23C19.0624 23 19.9776 22.608 20.7235 21.8011C20.7281 21.7965 20.7372 21.7874 20.7418 21.7783C21.0072 21.4592 21.3092 21.172 21.6249 20.8666C21.84 20.6614 22.0596 20.4472 22.2701 20.2283C23.2448 19.2163 23.2448 17.9308 22.261 16.9507L19.5109 14.2109C19.0441 13.7277 18.4859 13.4724 17.9001 13.4724C17.3144 13.4724 16.7516 13.7277 16.2711 14.2064L14.6329 15.8384C14.4819 15.7518 14.3263 15.6743 14.1799 15.6013C13.9969 15.5102 13.8276 15.4235 13.6766 15.3278C12.1848 14.3842 10.8303 13.1533 9.53535 11.5715C8.88099 10.7464 8.4417 10.0535 8.13512 9.34687C8.56525 8.95939 8.96793 8.55367 9.35689 8.15707C9.49416 8.01575 9.63602 7.87443 9.77787 7.73311C10.2721 7.24078 10.5375 6.67095 10.5375 6.092C10.5375 5.51305 10.2766 4.94322 9.77787 4.45089L8.41425 3.09242C8.25409 2.93286 8.10308 2.77787 7.9475 2.61832C7.64549 2.30833 7.32975 1.98923 7.01859 1.70203C6.54727 1.24161 5.99358 1 5.40787 1C4.82672 1 4.26846 1.24161 3.77884 1.70659L2.06744 3.41152C1.44512 4.0315 1.09277 4.78367 1.01956 5.65437C0.932615 6.74389 1.13396 7.90178 1.65561 9.30128C2.4564 11.4666 3.66444 13.477 5.4582 15.6241ZM2.13608 5.7501C2.19099 5.1438 2.42437 4.6378 2.86365 4.20017L4.5659 2.50435C4.8313 2.24907 5.12416 2.11687 5.40787 2.11687C5.687 2.11687 5.9707 2.24907 6.23153 2.51347C6.53812 2.7961 6.8264 3.09242 7.13756 3.40696C7.29315 3.56651 7.4533 3.72607 7.61346 3.89018L8.97709 5.24865C9.26079 5.53129 9.40722 5.81848 9.40722 6.10112C9.40722 6.38376 9.26079 6.67095 8.97709 6.95359C8.83523 7.0949 8.69338 7.24078 8.55152 7.3821C8.12596 7.81061 7.72786 8.21633 7.28857 8.60381C7.27942 8.61293 7.27484 8.61749 7.26569 8.62661C6.88589 9.00497 6.94538 9.36511 7.03689 9.63862C7.04147 9.6523 7.04605 9.66142 7.05062 9.67509C7.40297 10.5184 7.89259 11.3208 8.65677 12.2781C10.0295 13.9648 11.4755 15.2731 13.068 16.2806C13.2647 16.4082 13.4752 16.5085 13.672 16.6088C13.855 16.7 14.0243 16.7866 14.1753 16.8823C14.1936 16.8914 14.2074 16.9005 14.2257 16.9097C14.3767 16.9872 14.5231 17.0236 14.6695 17.0236C15.0356 17.0236 15.2736 16.7911 15.3513 16.7136L17.0627 15.0087C17.3281 14.7443 17.6164 14.603 17.9001 14.603C18.2479 14.603 18.5316 14.8172 18.7101 15.0087L21.4694 17.753C22.0185 18.3 22.0139 18.8927 21.4556 19.4716C21.2634 19.6768 21.0621 19.8728 20.847 20.0779C20.5267 20.3879 20.1927 20.707 19.8907 21.0671C19.3644 21.6324 18.7375 21.8968 17.9276 21.8968C17.8498 21.8968 17.7674 21.8923 17.6896 21.8877C16.1887 21.792 14.7931 21.2085 13.7452 20.7116C10.899 19.3394 8.40052 17.3929 6.32763 14.9221C4.62081 12.8753 3.47225 10.9697 2.71265 8.92748C2.24133 7.67385 2.06287 6.66639 2.13608 5.7501Z" fill="#2C7BE5" fill-opacity="0.7" stroke="#2C7BE5" stroke-opacity="0.7"/>
</svg>
