<svg width="50" height="50" viewBox="0 0 50 50" fill="none" xmlns="http://www.w3.org/2000/svg">
<g clip-path="url(#clip0)">
<path d="M34.4395 24.9672H15.4953C14.0347 24.9672 12.8502 23.7831 12.8502 22.3221V3.37827C12.8502 1.91724 14.0347 0.733154 15.4953 0.733154H34.4395C35.9001 0.733154 37.0846 1.91724 37.0846 3.37827V22.3221C37.0846 23.7831 35.9001 24.9672 34.4395 24.9672Z" fill="#FFCF95"/>
<path d="M37.0846 3.37802V22.3222C37.0846 23.7828 35.9001 24.9673 34.4395 24.9673H31.9767C33.4377 24.9673 34.621 23.7828 34.621 22.3222V3.37802C34.621 1.91699 33.4377 0.73291 31.9767 0.73291H34.4395C35.9001 0.73291 37.0846 1.91699 37.0846 3.37802Z" fill="#FFE4C3"/>
<path d="M32.3517 21.5118H17.5831C16.8774 21.5118 16.3055 20.94 16.3055 20.2346V5.46564C16.3055 4.7603 16.8774 4.18848 17.5831 4.18848H32.3517C33.0574 4.18848 33.6292 4.7603 33.6292 5.46564V20.2346C33.6292 20.94 33.0574 21.5118 32.3517 21.5118Z" fill="white"/>
<path d="M33.6292 5.46539V20.2348C33.6292 20.9405 33.0578 21.5119 32.352 21.5119H30.2375C30.9429 21.5119 31.5147 20.9405 31.5147 20.2348V5.46539C31.5147 4.76082 30.9429 4.18823 30.2375 4.18823H32.352C33.0578 4.18823 33.6292 4.76082 33.6292 5.46539V5.46539Z" fill="#FFCF95"/>
<path d="M22.3221 49.2439H3.3779C1.91725 49.2439 0.732788 48.0598 0.732788 46.5988V27.6546C0.732788 26.194 1.91725 25.0095 3.3779 25.0095H24.9672V46.5988C24.9672 48.0598 23.7831 49.2439 22.3221 49.2439Z" fill="#FFF4E7"/>
<path d="M24.9672 25.0097V46.5989C24.9672 48.0596 23.7831 49.244 22.3221 49.244H19.8593C21.3203 49.244 22.5037 48.0596 22.5037 46.5989V27.6548C22.5037 26.1937 21.3203 25.0093 19.8593 25.0093H24.9672V25.0097Z" fill="#FFE4C3"/>
<path d="M20.2347 45.7885H5.46571C4.75999 45.7885 4.18817 45.2167 4.18817 44.5114V29.7424C4.18817 29.037 4.75999 28.4648 5.46571 28.4648H20.2343C20.94 28.4648 21.5119 29.037 21.5119 29.7424V44.5114C21.5119 45.2167 20.94 45.7885 20.2347 45.7885Z" fill="white"/>
<path d="M21.5118 29.7421V44.5115C21.5118 45.2168 20.9404 45.7887 20.2347 45.7887H18.1202C18.8255 45.7887 19.3973 45.2168 19.3973 44.5115V29.7421C19.3973 29.0376 18.8255 28.4646 18.1202 28.4646H20.2347C20.9404 28.4646 21.5118 29.0376 21.5118 29.7421V29.7421Z" fill="#FFE4C3"/>
<path d="M46.6221 49.2439H27.6779C26.2169 49.2439 25.0328 48.0598 25.0328 46.5988V25.0095H46.6221C48.0828 25.0095 49.2672 26.194 49.2672 27.6546V46.5988C49.2672 48.0598 48.0828 49.2439 46.6221 49.2439V49.2439Z" fill="white"/>
<path d="M49.2672 27.6548V46.5989C49.2672 48.0596 48.0827 49.244 46.6221 49.244H44.1593C45.6203 49.244 46.8036 48.0596 46.8036 46.5989V27.6548C46.8036 26.1937 45.6203 25.0093 44.1593 25.0093H46.6221C48.0827 25.0093 49.2672 26.1937 49.2672 27.6548V27.6548Z" fill="#FFE4C3"/>
<path d="M44.5343 45.7885H29.7653C29.06 45.7885 28.4882 45.2167 28.4882 44.5114V29.7424C28.4882 29.037 29.06 28.4648 29.7653 28.4648H44.5343C45.2396 28.4648 45.8115 29.037 45.8115 29.7424V44.5114C45.8118 45.2167 45.24 45.7885 44.5343 45.7885Z" fill="white"/>
<path d="M45.8118 29.7421V44.5115C45.8118 45.2168 45.24 45.7887 44.5347 45.7887H42.4198C43.1255 45.7887 43.6973 45.2168 43.6973 44.5115V29.7421C43.6973 29.0376 43.1255 28.4646 42.4198 28.4646H44.5347C45.2404 28.4646 45.8118 29.0376 45.8118 29.7421V29.7421Z" fill="#FFE4C3"/>
<path d="M32.3517 3.45532H17.5831C16.4745 3.45532 15.5728 4.35712 15.5728 5.46567V20.2346C15.5728 21.3432 16.4745 22.2446 17.5831 22.2446H32.3517C33.4603 22.2446 34.362 21.3432 34.362 20.2346V17.3126C34.362 16.9079 34.034 16.5798 33.6292 16.5798C33.2245 16.5798 32.8961 16.9079 32.8961 17.3126V20.2346C32.8961 20.5349 32.6519 20.779 32.3517 20.779H17.5831C17.2829 20.779 17.0384 20.5349 17.0384 20.2346V5.46567C17.0384 5.16545 17.2829 4.92131 17.5831 4.92131H32.3517C32.6519 4.92131 32.8961 5.16545 32.8961 5.46567V13.9248C32.8961 14.3295 33.2245 14.6579 33.6292 14.6579C34.034 14.6579 34.362 14.3295 34.362 13.9248V5.46567C34.362 4.35712 33.4603 3.45532 32.3517 3.45532Z" fill="#FFA231"/>
<path d="M5.46567 46.5215H7.30435C7.70909 46.5215 8.03716 46.1934 8.03716 45.7887C8.03716 45.3839 7.70909 45.0559 7.30435 45.0559H5.46567C5.16545 45.0559 4.92131 44.8113 4.92131 44.5115V29.7425C4.92131 29.4423 5.16545 29.1982 5.46567 29.1982H20.2343C20.5345 29.1982 20.779 29.4423 20.779 29.7425V44.5115C20.779 44.8113 20.5345 45.0559 20.2343 45.0559H10.7002C10.2955 45.0559 9.96739 45.3839 9.96739 45.7887C9.96739 46.1934 10.2955 46.5215 10.7002 46.5215H20.2346C21.3432 46.5215 22.2446 45.6197 22.2446 44.5115V29.7425C22.2446 28.634 21.3432 27.7322 20.2346 27.7322H5.46567C4.35712 27.7322 3.45532 28.634 3.45532 29.7425V44.5115C3.45532 45.6197 4.35712 46.5215 5.46567 46.5215V46.5215Z" fill="#FFA231"/>
<path d="M46.6221 24.2767H37.1918C37.5851 23.7247 37.8174 23.0503 37.8174 22.3221V3.37791C37.8174 1.51558 36.3018 0 34.4395 0H15.4953C13.6326 0 12.1174 1.51558 12.1174 3.37791V22.3221C12.1174 23.0503 12.3497 23.7244 12.7426 24.2767H3.37791C1.51558 24.2767 0 25.7919 0 27.6546V46.5988C0 48.4615 1.51558 49.9767 3.37791 49.9767H22.3221C23.4116 49.9767 24.382 49.4579 25 48.6546C25.618 49.4579 26.5884 49.9767 27.6779 49.9767H46.6221C48.4848 49.9767 50 48.4615 50 46.5988V27.6546C50 25.7919 48.4844 24.2767 46.6221 24.2767V24.2767ZM24.2344 46.5988C24.2344 47.6532 23.3765 48.5111 22.3221 48.5111H3.37791C2.32353 48.5111 1.46599 47.6532 1.46599 46.5988V27.6546C1.46599 26.6003 2.32353 25.7423 3.37791 25.7423H24.2344V46.5988ZM15.4953 24.2344C14.4409 24.2344 13.583 23.3765 13.583 22.3221V3.37791C13.583 2.32353 14.4409 1.46599 15.4953 1.46599H34.4395C35.4939 1.46599 36.3518 2.32353 36.3518 3.37791V22.3221C36.3518 23.3765 35.4939 24.2344 34.4395 24.2344H15.4953ZM48.534 46.5988C48.534 47.6532 47.6765 48.5111 46.6221 48.5111H27.6779C26.6235 48.5111 25.7656 47.6532 25.7656 46.5988V25.7427H46.6221C47.6765 25.7427 48.534 26.6003 48.534 27.6546V46.5988Z" fill="#FFA231"/>
<path d="M44.5343 27.7322H29.7653C28.6568 27.7322 27.7554 28.634 27.7554 29.7425V44.5115C27.7554 45.6197 28.6568 46.5215 29.7653 46.5215H44.5343C45.6429 46.5215 46.5447 45.6197 46.5447 44.5115V29.7425C46.5447 28.634 45.6429 27.7322 44.5343 27.7322ZM45.0787 44.5115C45.0787 44.8113 44.8345 45.0559 44.5343 45.0559H29.7653C29.4651 45.0559 29.221 44.8113 29.221 44.5115V29.7425C29.221 29.4423 29.4651 29.1982 29.7653 29.1982H44.5343C44.8345 29.1982 45.0787 29.4423 45.0787 29.7425V44.5115Z" fill="#FFA231"/>
<path d="M20.8721 17.7566C20.8721 17.7101 20.8721 17.6639 20.8878 17.6178L23.9582 7.6183C24.0818 7.24789 24.5293 7.0625 24.9924 7.0625C25.4551 7.0625 25.9182 7.24789 26.0414 7.6183L29.097 17.6178C29.1123 17.6639 29.1279 17.7101 29.1279 17.7566C29.1279 18.1423 28.5568 18.4356 28.0941 18.4356C27.8317 18.4356 27.6154 18.3429 27.5383 18.0961L26.9058 15.9046H23.0942L22.4613 18.0961C22.3843 18.3429 22.1684 18.4356 21.8903 18.4356C21.4432 18.4356 20.8721 18.1575 20.8721 17.7566ZM26.5354 14.5931L24.9924 9.3002L23.4493 14.5931H26.5354Z" fill="#FFA231"/>
<path d="M9.01831 32.0277C9.01831 31.6726 9.37308 31.4875 9.74348 31.4875H12.5519C14.2032 31.4875 15.6692 31.9812 15.6692 34.1571C15.6692 35.438 15.16 36.3021 14.3574 36.6568C15.3141 37.0273 15.9469 37.6601 15.9469 39.2341V39.527C15.9469 41.9192 14.6046 42.7676 12.8761 42.7676H9.74348C9.29602 42.7676 9.01831 42.5208 9.01831 42.2431V32.0277ZM10.6384 36.0087H12.4748C13.5242 36.0087 14.0335 35.4686 14.0335 34.4195C14.0335 33.3854 13.4163 32.9379 12.4439 32.9379H10.6384V36.0087ZM12.5675 41.3173C13.6631 41.3173 14.3112 40.7309 14.3112 39.4038V39.157C14.3112 37.799 13.6631 37.305 12.5675 37.305H10.6384V41.3173H12.5675Z" fill="#FFA231"/>
<path d="M37.1208 32.9379C35.9326 32.9379 35.2692 33.5708 35.2692 34.9288V39.4191C35.2692 40.7771 35.9326 41.4096 37.1517 41.4096C38.7257 41.4096 38.8645 40.3449 38.9263 39.6663C38.9572 39.265 39.2811 39.1261 39.7286 39.1261C40.2996 39.1261 40.5621 39.2959 40.5621 39.9749C40.5621 41.672 39.1575 42.8603 37.0434 42.8603C35.1765 42.8603 33.6331 41.9192 33.6331 39.4191V34.9288C33.6331 32.4286 35.1917 31.4875 37.059 31.4875C39.1731 31.4875 40.5621 32.6449 40.5621 34.2807C40.5621 34.9749 40.2996 35.1294 39.7442 35.1294C39.2502 35.1294 38.9416 34.9597 38.9263 34.5893C38.8954 34.0491 38.7104 32.9379 37.1208 32.9379V32.9379Z" fill="#FFA231"/>
</g>
<defs>
<clipPath id="clip0">
<rect width="50" height="50" fill="white"/>
</clipPath>
</defs>
</svg>
