<svg width="41" height="36" viewBox="0 0 41 36" fill="none" xmlns="http://www.w3.org/2000/svg">
<path fill-rule="evenodd" clip-rule="evenodd" d="M8.13039 6.24963C8.27996 6.02527 8.27996 5.71545 8.27996 5.60861C8.29064 5.224 8.19449 4.80733 8.08765 4.4334C7.97013 4.02742 7.88466 3.60007 7.76714 3.19409C7.55347 2.44623 7.21159 1.73043 6.9445 0.993252C6.80561 0.608639 6.6774 -0.192639 6.10048 0.0424025C5.42741 0.330862 5.19237 1.0253 5.33126 1.71974C5.38468 2.0082 5.55562 2.2753 5.68382 2.54239C5.89749 3.00179 6.13254 3.42914 6.36758 3.86717C6.49578 4.11289 6.62399 4.35862 6.76287 4.60434C7.04065 5.07443 7.21159 5.66203 7.57483 6.06801C7.64962 6.1428 7.98081 6.47399 8.13039 6.24963Z" fill="#455164"/>
<path fill-rule="evenodd" clip-rule="evenodd" d="M5.67296 8.01254C5.67296 7.74545 5.49134 7.42494 5.33108 7.22195C4.94647 6.7305 4.30545 6.13221 3.50417 5.56597C2.17939 4.61512 1.9764 4.48692 1.5811 4.81811C1.37811 4.98905 1.33538 5.92922 2.11529 6.55956C3.22639 7.46767 4.45502 8.25827 4.861 8.40784C4.97852 8.45057 5.67296 8.57878 5.67296 8.01254Z" fill="#455164"/>
<path d="M2.22231 13.974C5.96161 8.33303 17.1474 7.36081 27.2115 11.8052C37.2755 16.239 42.4037 24.412 38.6644 30.0423C34.9251 35.6833 23.7393 36.6555 13.6752 32.2111C3.6112 27.7774 -1.51698 19.6043 2.22231 13.974Z" stroke="white" stroke-width="0.5" stroke-linecap="round" stroke-linejoin="round" stroke-dasharray="5 5"/>
<path fill-rule="evenodd" clip-rule="evenodd" d="M18.8782 5.61938L4.04919 29.006C4.04919 29.006 1.3569 34.8393 7.70301 34.9996L35.0747 28.9633C35.0747 28.9633 43.0233 27.1577 37.6708 20.459L28.3332 6.48476C28.3332 6.48476 23.3867 -0.288704 18.8782 5.61938Z" fill="white"/>
<path fill-rule="evenodd" clip-rule="evenodd" d="M35.5982 9.27281C35.5982 9.27281 12.2864 7.60615 9.5407 7.52068C6.78431 7.42453 5.99371 10.3519 6.07918 11.5591L5.2138 23.2257C5.2138 23.2257 4.36979 26.6445 9.92532 27.2107L18.0129 28.215C18.0129 28.215 19.0385 31.3453 17.5748 33.7064C17.5748 33.7064 17.3505 34.5825 18.515 34.2834C19.6795 33.9842 23.7073 31.1423 24.1453 28.6103C24.1453 28.5783 30.9615 28.6424 33.0769 28.7492C35.1923 28.856 36.8376 28.3966 37.0726 26.4202L37.4145 24.0804L39.0277 13.0335C39.017 13.0121 39.6367 9.06982 35.5982 9.27281Z" fill="#455164"/>
<path d="M7.47838 11.036L6.78394 21.3885C6.78394 21.3885 5.79035 25.7261 9.28392 26.1642L18.536 27.318C18.536 27.318 20.6193 30.6299 18.5146 33.3757C18.5146 33.3757 22.4249 30.9932 22.9163 28.1513L23.1834 27.2753L33.6 27.6171C33.6 27.6171 35.6833 27.8629 35.9825 26.0573L37.6064 13.0766C37.6064 13.0766 38.4718 10.7796 35.9291 10.2348C35.9291 10.2348 12.4463 8.49332 11.7412 8.66426C11.3352 8.74973 8.01256 7.73478 7.47838 11.036Z" stroke="white" stroke-width="0.5" stroke-linecap="round" stroke-linejoin="round" stroke-dasharray="9 9"/>
<path fill-rule="evenodd" clip-rule="evenodd" d="M11.4098 5.89709C11.6342 5.74752 11.8051 5.42701 11.8906 5.19197C12.0936 4.60436 12.2539 3.74967 12.318 2.75608C12.4034 1.12148 12.4141 0.886436 11.912 0.72618C11.6556 0.640711 10.8436 1.11079 10.7261 2.11506C10.5551 3.53599 10.5551 4.99966 10.6406 5.42701C10.6727 5.54453 10.9398 6.19623 11.4098 5.89709Z" fill="#455164"/>
<path d="M22.4141 20.2452C22.382 20.6618 22.2111 20.993 21.9013 21.2494C21.5914 21.5058 21.2175 21.6234 20.7795 21.5913C20.3735 21.5593 20.0209 21.399 19.7432 21.0999C19.4547 20.8007 19.3372 20.4481 19.3585 20.0529L19.444 18.7708C19.4867 18.2153 19.5829 17.8627 19.7538 17.7131C19.9248 17.5635 20.0743 17.4674 20.2026 17.4247C20.3308 17.3819 20.7902 17.3285 21.5594 17.2644C22.3393 17.2003 22.756 16.7516 22.8094 15.9183C22.8414 15.5336 22.7025 15.2025 22.4141 14.9247C22.1256 14.6469 21.741 14.4973 21.2496 14.4653C20.9077 14.4439 20.5978 14.4866 20.3201 14.6042C20.0423 14.7217 19.7538 14.946 19.4333 15.2772L19.1342 15.5764C18.803 15.8862 18.4397 16.0144 18.0231 15.993C17.6278 15.961 17.3073 15.8114 17.0722 15.5443C16.8372 15.2772 16.7303 14.9354 16.7624 14.5187C16.8265 13.664 17.3286 12.9482 18.2688 12.3713C19.2197 11.7944 20.288 11.5486 21.4953 11.6341C22.9269 11.7302 24.0807 12.1896 24.9354 13.0123C25.8008 13.8349 26.1854 14.8392 26.1 16.0251C26.0252 17.1041 25.694 17.8841 25.1064 18.3648C24.5188 18.8456 24.0701 19.1447 23.7602 19.2623C23.4504 19.3905 23.0017 19.4973 22.4034 19.6148L22.4141 20.2452ZM20.7261 22.5528C21.1961 22.5849 21.5914 22.7772 21.9119 23.1191C22.2218 23.461 22.3713 23.8562 22.3393 24.3156C22.3072 24.775 22.1149 25.1383 21.7517 25.4161C21.3884 25.7045 20.9718 25.822 20.4803 25.79C20.0209 25.7579 19.6363 25.5763 19.3265 25.2344C19.0167 24.8926 18.8778 24.508 18.9098 24.0699C18.9419 23.6212 19.1342 23.2473 19.4974 22.9481C19.85 22.649 20.2667 22.5208 20.7261 22.5528Z" fill="#455164"/>
<path d="M23.5576 20.3306C23.5256 20.7473 23.3546 21.0785 23.0448 21.3349C22.735 21.5913 22.3611 21.7088 21.923 21.6768C21.517 21.6447 21.1645 21.4844 20.8867 21.1853C20.5982 20.8862 20.4807 20.5336 20.5021 20.1383L20.5876 18.8563C20.6303 18.3007 20.7265 17.9481 20.8974 17.7986C21.0683 17.649 21.2179 17.5528 21.3461 17.5101C21.4743 17.4674 21.9337 17.414 22.7029 17.3499C23.4828 17.2858 23.8995 16.837 23.9529 16.0037C23.985 15.6191 23.8461 15.2879 23.5576 15.0101C23.2692 14.7323 22.8846 14.5828 22.3931 14.5507C22.0512 14.5294 21.7414 14.5721 21.4636 14.6896C21.1859 14.8071 20.8974 15.0315 20.5769 15.3627L20.2777 15.6618C19.9465 15.9717 19.5833 16.0999 19.1666 16.0785C18.7713 16.0464 18.4508 15.8969 18.2158 15.6298C17.9807 15.3627 17.8739 15.0208 17.906 14.6041C17.9701 13.7494 18.4722 13.0336 19.4124 12.4567C20.3632 11.8798 21.4316 11.6341 22.6388 11.7195C24.0704 11.8157 25.2243 12.2751 26.079 13.0977C26.9444 13.9204 27.329 14.9247 27.2435 16.1105C27.1687 17.1896 26.8375 17.9695 26.2499 18.4503C25.6623 18.931 25.2136 19.2302 24.9038 19.3477C24.594 19.4759 24.1452 19.5827 23.5469 19.7003L23.5576 20.3306ZM21.8696 22.6276C22.3397 22.6597 22.735 22.852 23.0555 23.1938C23.3653 23.5357 23.5149 23.931 23.4828 24.3904C23.4508 24.8391 23.2585 25.2131 22.8952 25.4908C22.532 25.7793 22.1153 25.8968 21.6239 25.8648C21.1645 25.8327 20.7799 25.6511 20.47 25.3092C20.1602 24.9673 20.0213 24.5827 20.0534 24.1447C20.0854 23.696 20.2777 23.322 20.641 23.0229C20.9935 22.7344 21.4102 22.5956 21.8696 22.6276Z" fill="white"/>
</svg>
