<svg width="20" height="20" viewBox="0 0 20 20" fill="none" xmlns="http://www.w3.org/2000/svg">
<path d="M6.44948 8.39431C6.20073 8.12295 5.77109 8.10034 5.49973 8.34908C5.22837 8.59783 5.20576 9.02747 5.4545 9.29883L8.86908 13.0074C9.00475 13.1431 9.16305 13.2335 9.34395 13.2335C9.34395 13.2335 9.34395 13.2335 9.36656 13.2335C9.54747 13.2335 9.72837 13.1657 9.84144 13.03L18.4796 4.41441C18.751 4.14305 18.751 3.7134 18.4796 3.46466C18.2083 3.21592 17.7786 3.1933 17.5299 3.46466L9.38918 11.5827L6.44948 8.39431Z" fill="#A18CE2" stroke="#A18CE2"/>
<path d="M18.3216 9.32161C17.9372 9.32161 17.6432 9.61558 17.6432 10C17.6432 14.206 14.206 17.6432 10 17.6432C5.79397 17.6432 2.35678 14.206 2.35678 10C2.35678 5.79397 5.79397 2.35678 10 2.35678C10.3844 2.35678 10.6784 2.06281 10.6784 1.67839C10.6784 1.29397 10.3844 1 10 1C5.04774 1 1 5.04774 1 10C1 14.9523 5.04774 19 10 19C14.9523 19 19 14.9523 19 10C19 9.61558 18.706 9.32161 18.3216 9.32161Z" fill="#A18CE2" stroke="#A18CE2"/>
</svg>
