<svg width="22" height="22" viewBox="0 0 22 22" fill="none" xmlns="http://www.w3.org/2000/svg">
<path d="M7.05536 9.21593C6.77897 8.91442 6.30159 8.88929 6.00008 9.16567C5.69857 9.44206 5.67345 9.91944 5.94983 10.221L9.7438 14.3416C9.89455 14.4923 10.0704 14.5928 10.2714 14.5928C10.2714 14.5928 10.2714 14.5928 10.2966 14.5928C10.4976 14.5928 10.6986 14.5174 10.8242 14.3667L20.4222 4.79382C20.7237 4.49231 20.7237 4.01492 20.4222 3.73854C20.1207 3.46216 19.6433 3.43703 19.3669 3.73854L10.3217 12.7586L7.05536 9.21593Z" fill="#2C7BE5" fill-opacity="0.7" stroke="#2C7BE5" stroke-opacity="0.7"/>
<path d="M20.2462 10.2462C19.8191 10.2462 19.4925 10.5729 19.4925 11C19.4925 15.6734 15.6734 19.4925 11 19.4925C6.32663 19.4925 2.50754 15.6734 2.50754 11C2.50754 6.32663 6.32663 2.50754 11 2.50754C11.4271 2.50754 11.7538 2.1809 11.7538 1.75377C11.7538 1.32663 11.4271 1 11 1C5.49749 1 1 5.49749 1 11C1 16.5025 5.49749 21 11 21C16.5025 21 21 16.5025 21 11C21 10.5729 20.6734 10.2462 20.2462 10.2462Z" fill="#2C7BE5" fill-opacity="0.7" stroke="#2C7BE5" stroke-opacity="0.7"/>
</svg>
