<svg width="50" height="50" viewBox="0 0 50 50" fill="none" xmlns="http://www.w3.org/2000/svg">
<path d="M37.2501 24.2585H49.1725V46.8103H37.2501V24.2585Z" fill="#E6FFEF"/>
<path d="M18.75 35.2327H25V46.8016H18.75V35.2327Z" fill="white"/>
<path d="M31.25 46.8016V35.2327H18.75V46.8016H12.7155V21.2672L24.9655 14.3706L37.2155 21.2672V46.8016H31.25V46.8016ZM25 18.8706C23.4812 18.8706 22.25 20.1019 22.25 21.6206C22.25 23.1394 23.4812 24.3706 25 24.3706C26.5187 24.3706 27.75 23.1394 27.75 21.6206C27.7453 20.1038 26.5168 18.8753 25 18.8706Z" fill="#E6FFEF"/>
<path d="M25 35.2329H31.25V46.8019H25V35.2329Z" fill="white"/>
<path d="M25 24.3794C26.5188 24.3794 27.75 23.1482 27.75 21.6294C27.75 20.1106 26.5188 18.8794 25 18.8794C23.4812 18.8794 22.25 20.1106 22.25 21.6294C22.25 23.1482 23.4812 24.3794 25 24.3794Z" fill="white"/>
<path d="M0.827545 24.2585H12.75V46.8103H0.827545V24.2585Z" fill="#E6FFEF"/>
<path d="M25 5.11206H32.0431V9.63792H25V5.11206Z" fill="#91FFBB"/>
<path d="M28.9311 7.20679H35.8017V11.7326H28.9311V7.20679Z" fill="#91FFBB"/>
<path d="M49.1379 23.3965H38.1121V21.2672C38.1115 20.9562 37.9435 20.6696 37.6724 20.5172L25.8621 13.8793V10.5H28.1983V11.7845C28.1983 12.2605 28.5843 12.6465 29.0603 12.6465H36.1034C36.5795 12.6463 36.9653 12.2602 36.9652 11.7841C36.9652 11.6843 36.9477 11.5853 36.9138 11.4913L36.2069 9.48273L36.9224 7.51721C37.0843 7.06948 36.8526 6.5753 36.4048 6.41344C36.311 6.3795 36.212 6.36215 36.1121 6.36204H32.9052V5.11204C32.9052 4.63596 32.5192 4.24997 32.0431 4.24997H25.8621V3.19825C25.8621 2.72217 25.4761 2.33618 25 2.33618C24.5239 2.33618 24.1379 2.72217 24.1379 3.19825V13.8793L12.3276 20.5086C12.0565 20.661 11.8885 20.9476 11.8879 21.2586V23.3879H0.862069C0.385991 23.3879 0 23.7739 0 24.25V46.8017C0 47.2778 0.385991 47.6637 0.862069 47.6637H49.1379C49.614 47.6637 50 47.2778 50 46.8017V24.2586C50 23.7825 49.614 23.3965 49.1379 23.3965ZM32.8707 9.60342V8.12066H34.8362L34.4828 9.22411C34.4122 9.41613 34.4122 9.62691 34.4828 9.81894L34.8879 10.9224H29.9224V10.5H32.0431C32.5192 10.5 32.9052 10.114 32.9052 9.6379L32.8707 9.60342ZM25.8621 5.97411H31.181V7.25859V8.77583H25.8621V5.97411ZM11.8879 45.9396H1.72414V25.1207H11.8879V45.9396ZM24.1379 45.9396H19.6121V36.0948H24.1379V45.9396ZM30.3879 45.9396H25.8621V36.0948H30.3879V45.9396ZM36.4224 24.25V45.9396H32.1121V35.2327C32.1121 34.7566 31.7261 34.3706 31.25 34.3706H18.75C18.2739 34.3706 17.8879 34.7566 17.8879 35.2327V45.9396H13.5776V21.8017L25 15.3707L36.3879 21.7672L36.4224 24.25ZM48.2759 45.9396H38.1121V25.1207H48.2759V45.9396Z" fill="#00E95A"/>
<path d="M21.3879 21.6292C21.3927 23.6242 23.0137 25.2374 25.0086 25.2327C27.0036 25.2279 28.6168 23.6069 28.6121 21.612C28.6073 19.6205 26.9916 18.0085 25 18.0085C23.0037 18.0133 21.3879 19.6329 21.3879 21.6292ZM26.8966 21.6292C26.8918 22.6719 26.0427 23.5133 25 23.5085C23.9573 23.5038 23.116 22.6547 23.1207 21.612C23.1254 20.5761 23.964 19.7374 25 19.7327C26.0441 19.7374 26.8879 20.5852 26.8879 21.6292H26.8966Z" fill="#00E95A"/>
<path d="M3.8017 27.0173H5.52584V30.4656H3.8017V27.0173Z" fill="#00E95A"/>
<path d="M8.05176 27.0173H9.7759V30.4656H8.05176V27.0173Z" fill="#00E95A"/>
<path d="M16.1982 27.0173H19.6465V28.7415H16.1982V27.0173Z" fill="#00E95A"/>
<path d="M23.2758 27.0173H26.7241V28.7415H23.2758V27.0173Z" fill="#00E95A"/>
<path d="M30.3535 27.0173H33.8018V28.7415H30.3535V27.0173Z" fill="#00E95A"/>
<path d="M16.1982 31.0344H19.6465V32.7586H16.1982V31.0344Z" fill="#00E95A"/>
<path d="M23.2758 31.0344H26.7241V32.7586H23.2758V31.0344Z" fill="#00E95A"/>
<path d="M30.3535 31.0344H33.8018V32.7586H30.3535V31.0344Z" fill="#00E95A"/>
<path d="M3.8017 33.8018H5.52584V37.25H3.8017V33.8018Z" fill="#00E95A"/>
<path d="M8.05176 33.8018H9.7759V37.25H8.05176V33.8018Z" fill="#00E95A"/>
<path d="M3.8017 40.5947H5.52584V44.043H3.8017V40.5947Z" fill="#00E95A"/>
<path d="M8.05176 40.5947H9.7759V44.043H8.05176V40.5947Z" fill="#00E95A"/>
<path d="M40.2241 27.0173H41.9483V30.4656H40.2241V27.0173Z" fill="#00E95A"/>
<path d="M44.4742 27.0173H46.1983V30.4656H44.4742V27.0173Z" fill="#00E95A"/>
<path d="M40.2241 33.8018H41.9483V37.25H40.2241V33.8018Z" fill="#00E95A"/>
<path d="M44.4742 33.8018H46.1983V37.25H44.4742V33.8018Z" fill="#00E95A"/>
<path d="M40.2241 40.5947H41.9483V44.043H40.2241V40.5947Z" fill="#00E95A"/>
<path d="M44.4742 40.5947H46.1983V44.043H44.4742V40.5947Z" fill="#00E95A"/>
</svg>
