<svg width="30" height="30" viewBox="0 0 30 30" fill="none" xmlns="http://www.w3.org/2000/svg">
<rect width="30" height="30" rx="15" fill="#EDF2F9"/>
<path d="M21.7746 20.6784L18.9439 17.8326C19.8835 16.7542 20.3983 15.3975 20.3983 13.985C20.3983 10.6849 17.6173 8 14.1991 8C10.781 8 8 10.6849 8 13.985C8 17.2851 10.781 19.97 14.1991 19.97C15.4824 19.97 16.7052 19.5963 17.7507 18.887L20.6092 21.7606C20.7631 21.9149 20.9701 22 21.1919 22C21.4019 22 21.601 21.9227 21.7522 21.7822C22.0735 21.4837 22.0838 20.9888 21.7746 20.6784ZM14.1991 9.5613C16.7257 9.5613 18.7811 11.5457 18.7811 13.985C18.7811 16.4243 16.7257 18.4087 14.1991 18.4087C11.6726 18.4087 9.61716 16.4243 9.61716 13.985C9.61716 11.5457 11.6726 9.5613 14.1991 9.5613Z" fill="#FF6584"/>
</svg>
