<svg width="35" height="70" viewBox="0 0 35 70" fill="none" xmlns="http://www.w3.org/2000/svg">
<rect width="35" height="70" fill="#223347"/>
<g clip-path="url(#clip0)">
<path d="M12.6666 48.1772C13.8633 48.1772 14.8334 49.1472 14.8334 50.3439C14.8334 51.5405 13.8633 52.5105 12.6666 52.5105C11.4701 52.5105 10.5 51.5405 10.5 50.3439C10.5 49.1472 11.4701 48.1772 12.6666 48.1772Z" fill="white"/>
<path d="M15.3334 50.3439C15.3334 51.8146 14.1373 53.0105 12.6666 53.0105C11.196 53.0105 10 51.8146 10 50.3439C10 48.8732 11.196 47.6772 12.6666 47.6772C14.1373 47.6772 15.3334 48.8732 15.3334 50.3439ZM11 50.3439C11 51.2632 11.748 52.0105 12.6666 52.0105C13.5853 52.0105 14.3334 51.2632 14.3334 50.3439C14.3334 49.4246 13.5853 48.6772 12.6666 48.6772C11.748 48.6772 11 49.4246 11 50.3439Z" fill="white"/>
<path d="M23.3333 48.1772C24.5298 48.1772 25.4999 49.1472 25.4999 50.3439C25.4999 51.5405 24.5298 52.5105 23.3333 52.5105C22.1366 52.5105 21.1665 51.5405 21.1665 50.3439C21.1665 49.1472 22.1366 48.1772 23.3333 48.1772Z" fill="white"/>
<path d="M25.9999 50.3439C25.9999 51.8146 24.8038 53.0105 23.3333 53.0105C21.8625 53.0105 20.6665 51.8146 20.6665 50.3439C20.6665 48.8732 21.8625 47.6772 23.3333 47.6772C24.8038 47.6772 25.9999 48.8732 25.9999 50.3439ZM21.6665 50.3439C21.6665 51.2632 22.4146 52.0105 23.3333 52.0105C24.2518 52.0105 24.9999 51.2632 24.9999 50.3439C24.9999 49.4246 24.2518 48.6772 23.3333 48.6772C22.4146 48.6772 21.6665 49.4246 21.6665 50.3439Z" fill="white"/>
<path d="M18.0001 57.5104C19.1968 57.5104 20.1667 58.4805 20.1667 59.6771C20.1667 60.8737 19.1968 61.8437 18.0001 61.8437C16.8035 61.8437 15.8335 60.8737 15.8335 59.6771C15.8335 58.4805 16.8035 57.5104 18.0001 57.5104Z" fill="white"/>
<path d="M20.6667 59.6771C20.6667 61.1477 19.4708 62.3437 18.0001 62.3437C16.5294 62.3437 15.3335 61.1477 15.3335 59.6771C15.3335 58.2064 16.5294 57.0104 18.0001 57.0104C19.4708 57.0104 20.6667 58.2064 20.6667 59.6771ZM16.3335 59.6771C16.3335 60.5964 17.0814 61.3437 18.0001 61.3437C18.9188 61.3437 19.6667 60.5964 19.6667 59.6771C19.6667 58.7577 18.9188 58.0104 18.0001 58.0104C17.0814 58.0104 16.3335 58.7577 16.3335 59.6771Z" fill="white"/>
<path d="M17.6802 58.1024C17.6802 58.3345 17.5595 58.5598 17.3435 58.6825C17.0242 58.8645 16.6168 58.7525 16.4341 58.4331L12.9075 52.2472C12.7241 51.9279 12.8362 51.5205 13.1567 51.3378C13.4761 51.1558 13.8834 51.2678 14.0662 51.5872L17.5928 57.7732C17.6521 57.8772 17.6802 57.9905 17.6802 58.1024Z" fill="white"/>
<path d="M23.1803 51.9179C23.1803 52.0299 23.1522 52.1432 23.0929 52.2472L19.5663 58.4332C19.3843 58.7526 18.9769 58.8645 18.6569 58.6825C18.3369 58.5012 18.2242 58.0933 18.4076 57.7732L21.9342 51.5872C22.1162 51.2678 22.5236 51.1559 22.8436 51.3379C23.0596 51.4612 23.1803 51.6865 23.1803 51.9179Z" fill="white"/>
</g>
<path d="M19.392 39.64C20.46 39.028 21.144 37.924 21.144 36.58C21.144 34.996 20.22 33.808 18.768 33.808C17.7 33.808 17.04 34.432 16.452 35.764L16.056 36.664C15.756 37.336 15.564 37.588 15.144 37.588C14.652 37.588 14.376 37.168 14.376 36.604C14.376 36.004 14.676 35.5 15.288 35.092L14.436 33.988C13.524 34.48 12.936 35.392 12.936 36.604C12.936 38.104 13.824 39.232 15.18 39.232C16.236 39.232 16.92 38.524 17.46 37.312L17.844 36.46C18.192 35.704 18.36 35.452 18.828 35.452C19.368 35.452 19.704 35.872 19.704 36.58C19.704 37.444 19.26 38.008 18.552 38.524L19.392 39.64ZM17.316 27.0329C15.876 27.0329 14.928 27.8969 14.928 29.2409C14.928 29.9009 15.168 30.4769 15.564 30.8729L12 30.8729L12 32.4929L21 32.4929L21 30.8729L17.544 30.8729C16.86 30.8729 16.392 30.4049 16.392 29.7449C16.392 29.0849 16.86 28.6409 17.544 28.6409L21 28.6409L21 27.0329L17.316 27.0329ZM17.472 20.4933C15.828 20.4933 14.928 21.4893 14.928 23.0373C14.928 24.0813 15.336 24.9453 16.152 25.6293L17.148 24.7893C16.584 24.2613 16.332 23.8293 16.332 23.2173C16.332 22.4973 16.716 22.1133 17.376 22.1133L17.64 22.1133L17.64 23.6013C17.64 24.9813 18.3 25.8453 19.368 25.8453C20.412 25.8453 21.144 25.0533 21.144 23.7933C21.144 23.0373 20.868 22.4133 20.424 21.9813L21 21.9813L21 20.4933L17.472 20.4933ZM18.78 22.1133C19.464 22.1133 19.956 22.6533 19.956 23.3613C19.956 23.8773 19.704 24.2133 19.308 24.2133C18.912 24.2133 18.708 23.9133 18.708 23.3853L18.708 22.1133L18.78 22.1133ZM15.06 15.2863C15.012 15.4423 14.988 15.6103 14.988 15.8143C14.988 16.4743 15.276 17.0503 15.768 17.4463L15.06 17.4463L15.06 18.9343L21 18.9343L21 17.3143L18.036 17.3143C17.016 17.3143 16.488 16.6903 16.488 15.7183L16.488 15.2863L15.06 15.2863ZM18.576 8.93912C18.276 8.86712 17.976 8.83112 17.688 8.83112C16.14 8.83112 14.928 9.98312 14.928 11.6271C14.892 13.3431 16.32 14.7711 18.036 14.7351C19.752 14.7711 21.18 13.3191 21.144 11.4831C21.144 10.6071 20.844 9.81512 20.256 9.10712L19.152 9.77912C19.548 10.2951 19.752 10.8471 19.752 11.4351C19.752 12.2991 19.332 12.9111 18.576 13.1031L18.576 8.93912ZM17.436 13.1031C16.704 12.9231 16.236 12.3711 16.236 11.6871C16.236 10.9791 16.704 10.4151 17.436 10.4031L17.436 13.1031Z" fill="white"/>
<defs>
<clipPath id="clip0">
<rect width="16" height="16" fill="white" transform="translate(10 63) rotate(-90)"/>
</clipPath>
</defs>
</svg>
