<svg width="15" height="15" viewBox="0 0 15 15" fill="none" xmlns="http://www.w3.org/2000/svg">
<path d="M14.5341 4.05168L11.0067 0.524338C10.7753 0.292892 10.4032 0.292892 10.1718 0.524338L6.64734 4.05168C6.41589 4.28313 6.41589 4.6552 6.64734 4.88664C6.87878 5.11809 7.25085 5.11809 7.4823 4.88664L9.99304 2.3759V12.7118C9.99304 13.0429 10.2596 13.3095 10.5907 13.3095C10.9218 13.3095 11.1884 13.0429 11.1884 12.7118V2.3759L13.6991 4.88664C13.9305 5.11809 14.3026 5.11809 14.5341 4.88664C14.7655 4.65813 14.7655 4.28313 14.5341 4.05168Z" fill="#223347"/>
<path d="M8.41101 10.1717C8.17957 9.94028 7.8075 9.94028 7.57605 10.1717L5.06531 12.6825V2.34653C5.06531 2.01547 4.79871 1.74887 4.46765 1.74887C4.1366 1.74887 3.87 2.01547 3.87 2.34653V12.6825L1.35925 10.1717C1.12781 9.94028 0.755737 9.94028 0.524292 10.1717C0.292847 10.4032 0.292847 10.7752 0.524292 11.0067L4.05164 14.534C4.28308 14.7655 4.65515 14.7655 4.8866 14.534L8.41394 11.0067C8.64246 10.7752 8.64246 10.4002 8.41101 10.1717Z" fill="#223347"/>
</svg>
