<svg width="22" height="22" viewBox="0 0 22 22" fill="none" xmlns="http://www.w3.org/2000/svg">
<g clip-path="url(#clip0)">
<path d="M20.7059 17.9448H19.9294C19.9294 17.8017 19.9294 7.51555 19.9294 7.16049H21.3529C22.0132 7.16049 22.2478 6.28226 21.676 5.95277L11.642 0.171603C11.246 -0.05655 10.754 -0.05655 10.3579 0.171603L0.324047 5.95277C-0.248039 6.28239 -0.0129412 7.16049 0.647059 7.16049H2.07059V17.9448H1.29412C0.580541 17.9448 0 18.5253 0 19.2389V20.7056C0 21.4192 0.580541 21.9997 1.29412 21.9997H20.7059C21.4195 21.9997 22 21.4192 22 20.7056V19.2389C22 18.5253 21.4195 17.9448 20.7059 17.9448ZM11 1.29524L18.9338 5.86637C16.5447 5.86637 4.98261 5.86637 3.06624 5.86637L11 1.29524ZM18.6353 16.4781V17.9448H3.36471V16.4781H18.6353ZM3.36471 15.184V7.16049H4.83137V15.184H3.36471ZM6.12549 15.184V7.16049H8.97255V15.184H6.12549ZM10.2667 15.184V7.16049H11.7333V15.184H10.2667ZM13.0275 15.184V7.16049H15.8745V15.184H13.0275ZM17.1686 15.184V7.16049H18.6353V15.184H17.1686ZM20.7059 20.7056H1.29412V19.2389H20.7059C20.7067 20.7381 20.7102 20.7056 20.7059 20.7056Z" fill="#2C7BE5" fill-opacity="0.7"/>
</g>
<defs>
<clipPath id="clip0">
<rect width="22" height="22" fill="white"/>
</clipPath>
</defs>
</svg>
