<svg width="50" height="50" viewBox="0 0 50 50" fill="none" xmlns="http://www.w3.org/2000/svg">
<g clip-path="url(#clip0)">
<path d="M13.3333 45H36.6667V48.3333C36.6667 48.7936 36.2936 49.1667 35.8334 49.1667H14.1667C13.7064 49.1667 13.3333 48.7936 13.3333 48.3333V45Z" fill="#FFC5D6"/>
<path d="M34.1666 45V48.3333C34.1666 48.7936 33.7936 49.1667 33.3333 49.1667H35.8333C36.2936 49.1667 36.6667 48.7936 36.6667 48.3333V45H34.1666Z" fill="#FFC5D6"/>
<path d="M13.3333 48.3333H1.66668C1.20644 48.3333 0.833344 47.9602 0.833344 47.5V45.8333C0.833344 45.3731 1.20644 45 1.66668 45H13.3333V48.3333Z" fill="#FFC5D6"/>
<path d="M36.6667 48.3333H48.3334C48.7936 48.3333 49.1667 47.9602 49.1667 47.5V45.8333C49.1667 45.3731 48.7936 45 48.3334 45H36.6667V48.3333Z" fill="#FFC5D6"/>
<path d="M48.3333 45H45.8333C46.2936 45 46.6666 45.3731 46.6666 45.8333V47.5C46.6666 47.9602 46.2936 48.3333 45.8333 48.3333H48.3333C48.7936 48.3333 49.1667 47.9602 49.1667 47.5V45.8333C49.1667 45.3731 48.7936 45 48.3333 45Z" fill="#FFC5D6"/>
<path d="M15 25H35V45H15V25Z" fill="#FFEFF4"/>
<path d="M32.5 25H35V45H32.5V25Z" fill="#FFCEDC"/>
<path d="M38.3333 18.3335V20.8335C38.3333 21.2937 37.9602 21.6668 37.5 21.6668H12.5C12.0398 21.6668 11.6667 21.2937 11.6667 20.8335V18.3335H38.3333Z" fill="#FFEFF4"/>
<path d="M35.8333 18.3335V20.8335C35.8333 21.2937 35.4602 21.6668 35 21.6668H37.5C37.9602 21.6668 38.3333 21.2937 38.3333 20.8335V18.3335H35.8333Z" fill="#FFCEDC"/>
<path d="M38.3333 18.3335H11.6667L15.3333 13.9335C15.6495 13.5512 16.1205 13.331 16.6167 13.3335H32.6417C33.0857 13.3337 33.5115 13.5106 33.825 13.8252L38.3333 18.3335Z" fill="#FFEFF4"/>
<path d="M33.825 13.8252C33.5115 13.5106 33.0858 13.3337 32.6417 13.3335H30.1417C30.5858 13.3337 31.0115 13.5106 31.325 13.8252L35.8333 18.3335H38.3333L33.825 13.8252Z" fill="#FFCEDC"/>
<path d="M13.3333 21.6667H36.6667V25.0001H13.3333V21.6667Z" fill="#FFCEDC"/>
<path d="M34.1667 21.6667H36.6667V25.0001H34.1667V21.6667Z" fill="#FFC5D6"/>
<path d="M35 25H48.3333V45H35V25Z" fill="#FFEFF4"/>
<path d="M45.8333 25H48.3333V45H45.8333V25Z" fill="#FFCEDC"/>
<path d="M48.3334 25H36.6667V21.6667H37.5C37.9603 21.6667 38.3334 21.2936 38.3334 20.8333V20H44.8C45.4325 20.0003 46.0102 20.3586 46.2917 20.925L48.3334 25Z" fill="#FFEFF4"/>
<path d="M46.2917 20.925C46.0102 20.3586 45.4324 20.0003 44.8 20H42.3C42.9324 20.0003 43.5102 20.3586 43.7917 20.925L45.8333 25H48.3333L46.2917 20.925Z" fill="#FFCEDC"/>
<path d="M1.66666 25H15V45H1.66666V25Z" fill="#FFEFF4"/>
<path d="M13.3333 21.6667V25H1.66666L3.70832 20.925C3.98976 20.3586 4.56754 20.0003 5.19999 20H11.6667V20.8333C11.6667 21.2936 12.0398 21.6667 12.5 21.6667H13.3333Z" fill="#FFEFF4"/>
<path d="M21.6667 34.1667H28.3333V45.0001H21.6667V34.1667Z" fill="#FFC5D6"/>
<path d="M36.05 5.39182L32.5 6.35016L25.2083 8.30849C25.0714 8.34181 24.9286 8.34181 24.7917 8.30849L17.5 6.35016L13.95 5.39182C13.5792 5.29891 13.3192 4.9657 13.3192 4.58349C13.3192 4.20128 13.5792 3.86807 13.95 3.77516L24.7917 0.858488C24.9286 0.825165 25.0714 0.825165 25.2083 0.858488L36.05 3.77516C36.4207 3.86807 36.6807 4.20128 36.6807 4.58349C36.6807 4.9657 36.4207 5.29891 36.05 5.39182V5.39182Z" fill="#FFC5D6"/>
<path d="M36.05 3.77516L25.2083 0.858488C25.0714 0.825165 24.9286 0.825165 24.7917 0.858488L23.75 1.13849L33.55 3.77516C33.9208 3.86807 34.1808 4.20128 34.1808 4.58349C34.1808 4.9657 33.9208 5.29891 33.55 5.39182L30 6.35016L23.75 8.02849L24.7917 8.30849C24.9286 8.34181 25.0714 8.34181 25.2083 8.30849L32.5 6.35016L36.05 5.39182C36.4208 5.29891 36.6808 4.9657 36.6808 4.58349C36.6808 4.20128 36.4208 3.86807 36.05 3.77516V3.77516Z" fill="#FFC5D6"/>
<path d="M32.5 6.3501V13.3334H17.5V6.3501L24.7917 8.30843C24.9286 8.34175 25.0714 8.34175 25.2083 8.30843L32.5 6.3501Z" fill="#FFC5D6"/>
<path d="M1.66668 48.3333H4.16668C3.70644 48.3333 3.33334 47.9602 3.33334 47.5V45.8333C3.33334 45.3731 3.70644 45 4.16668 45V25L6.20834 20.925C6.48979 20.3586 7.06756 20.0003 7.70001 20H5.20001C4.56756 20.0003 3.98979 20.3586 3.70834 20.925L1.66668 25V45C1.20644 45 0.833344 45.3731 0.833344 45.8333V47.5C0.833344 47.9602 1.20644 48.3333 1.66668 48.3333Z" fill="white"/>
<path d="M0.833344 38.3335H2.50001V45.0002H0.833344V38.3335Z" fill="white"/>
<path d="M1.68334 42.5002C1.2231 42.5025 0.848137 42.1312 0.845836 41.671C0.843535 41.2108 1.21477 40.8358 1.675 40.8335H1.68334C2.14357 40.8335 2.51667 41.2066 2.51667 41.6668C2.51667 42.1271 2.14357 42.5002 1.68334 42.5002V42.5002Z" fill="#FF7BA2"/>
<path d="M49.1667 44.3984V25.0001C49.1644 24.8712 49.1315 24.7446 49.0708 24.6309H49.0792L47.0392 20.5517C46.6191 19.7013 45.7518 19.1641 44.8033 19.1667H39.1667V18.3334C39.1666 18.1124 39.0788 17.9005 38.9225 17.7442L34.4108 13.2326C34.111 12.9358 33.74 12.7209 33.3333 12.6084V6.98757L35 6.54007V8.5584V8.56423C34.9991 9.41998 35.4267 10.2193 36.1392 10.6934C36.3869 10.8586 36.7039 10.8792 36.9709 10.7473C37.2378 10.6154 37.4141 10.3511 37.4334 10.0539C37.4526 9.7568 37.3119 9.47197 37.0642 9.30673C36.8155 9.14155 36.6663 8.86273 36.6667 8.56423V8.5584V6.01923C37.25 5.68231 37.5731 5.02738 37.4856 4.35946C37.3981 3.69154 36.9171 3.14198 36.2667 2.96673L25.4283 0.0567312C25.1477 -0.0182594 24.8523 -0.0182594 24.5717 0.0567312L13.7333 2.96673C13.0045 3.16572 12.4989 3.82785 12.4989 4.5834C12.4989 5.33895 13.0045 6.00107 13.7333 6.20007L16.6667 6.98757V12.5001H16.6142C15.8733 12.5004 15.1709 12.8302 14.6975 13.4001L11.0308 17.8001C10.9045 17.9492 10.8346 18.138 10.8333 18.3334V19.1667H5.19667C4.24894 19.1634 3.38179 19.6993 2.96083 20.5484L0.920833 24.6276H0.929167C0.867961 24.7423 0.835101 24.87 0.833333 25.0001V38.3334C0.833333 38.7936 1.20643 39.1667 1.66667 39.1667C2.1269 39.1667 2.5 38.7936 2.5 38.3334V25.8334H14.1667V44.1667H1.66667C0.746192 44.1667 0 44.9129 0 45.8334V47.5001C0 48.4206 0.746192 49.1667 1.66667 49.1667H12.7317C13.027 49.6807 13.5739 49.9983 14.1667 50.0001H35.8333C36.4261 49.9983 36.973 49.6807 37.2683 49.1667H48.3333C49.2538 49.1667 50 48.4206 50 47.5001V45.8334C49.9982 45.2406 49.6806 44.6938 49.1667 44.3984V44.3984ZM12.5 47.5001H1.66667V45.8334H12.5V47.5001ZM39.1667 20.8334H44.8033C45.1192 20.8324 45.4082 21.0111 45.5483 21.2942L46.985 24.1667H37.5V22.5001C38.4205 22.5001 39.1667 21.7539 39.1667 20.8334ZM14.1667 4.57673L25 1.66673L35.845 4.5834H35.8342L25.0042 7.50007L14.1667 4.57673ZM31.6667 7.43507V12.5001H18.3333V7.43507L24.5717 9.11007C24.8522 9.18561 25.1478 9.18561 25.4283 9.11007L31.6667 7.43507ZM15.9742 14.4667C16.1324 14.2767 16.3669 14.1668 16.6142 14.1667H32.6425C32.8638 14.1666 33.0761 14.2544 33.2325 14.4109L36.3217 17.5001H13.4458L15.9742 14.4667ZM12.5 24.1667H3.015L4.45167 21.2942C4.59181 21.0111 4.88078 20.8324 5.19667 20.8334H10.8333C10.8333 21.7539 11.5795 22.5001 12.5 22.5001V24.1667ZM12.5 20.8334V19.1667H37.5V20.8334H12.5ZM28.3333 33.3334H21.6667C21.2064 33.3334 20.8333 33.7065 20.8333 34.1667V44.1667H15.8333V25.8334H34.1667V44.1667H29.1667V34.1667C29.1667 33.7065 28.7936 33.3334 28.3333 33.3334ZM27.5 35.0001V44.1667H22.5V35.0001H27.5ZM14.1667 24.1667V22.5001H35.8333V24.1667H14.1667ZM14.1667 48.3334V45.8334H35.8333V48.3334H14.1667ZM36.6667 44.1667H35.8333V25.8334H47.5V44.1667H36.6667ZM48.3333 47.5001H37.5V45.8334H48.3333V47.5001Z" fill="#FF7BA2"/>
<path d="M22.5 27.5C22.0398 27.5 21.6667 27.8731 21.6667 28.3333V30C21.6667 30.4602 22.0398 30.8333 22.5 30.8333C22.9602 30.8333 23.3333 30.4602 23.3333 30V28.3333C23.3333 27.8731 22.9602 27.5 22.5 27.5Z" fill="#FF7BA2"/>
<path d="M10.8333 31.6668C11.2936 31.6668 11.6667 31.2937 11.6667 30.8335V29.1668C11.6667 28.7066 11.2936 28.3335 10.8333 28.3335C10.3731 28.3335 10 28.7066 10 29.1668V30.8335C10 31.2937 10.3731 31.6668 10.8333 31.6668Z" fill="#FF7BA2"/>
<path d="M5.83333 31.6668C6.29357 31.6668 6.66667 31.2937 6.66667 30.8335V29.1668C6.66667 28.7066 6.29357 28.3335 5.83333 28.3335C5.3731 28.3335 5 28.7066 5 29.1668V30.8335C5 31.2937 5.3731 31.6668 5.83333 31.6668Z" fill="#FF7BA2"/>
<path d="M10 35.8335C10 36.2937 10.3731 36.6668 10.8333 36.6668C11.2936 36.6668 11.6667 36.2937 11.6667 35.8335V34.1668C11.6667 33.7066 11.2936 33.3335 10.8333 33.3335C10.3731 33.3335 10 33.7066 10 34.1668V35.8335Z" fill="#FF7BA2"/>
<path d="M5 35.8335C5 36.2937 5.3731 36.6668 5.83333 36.6668C6.29357 36.6668 6.66667 36.2937 6.66667 35.8335V34.1668C6.66667 33.7066 6.29357 33.3335 5.83333 33.3335C5.3731 33.3335 5 33.7066 5 34.1668V35.8335Z" fill="#FF7BA2"/>
<path d="M10 40.8335C10 41.2937 10.3731 41.6668 10.8333 41.6668C11.2936 41.6668 11.6667 41.2937 11.6667 40.8335V39.1668C11.6667 38.7066 11.2936 38.3335 10.8333 38.3335C10.3731 38.3335 10 38.7066 10 39.1668V40.8335Z" fill="#FF7BA2"/>
<path d="M5 40.8335C5 41.2937 5.3731 41.6668 5.83333 41.6668C6.29357 41.6668 6.66667 41.2937 6.66667 40.8335V39.1668C6.66667 38.7066 6.29357 38.3335 5.83333 38.3335C5.3731 38.3335 5 38.7066 5 39.1668V40.8335Z" fill="#FF7BA2"/>
<path d="M44.1667 28.3335C43.7064 28.3335 43.3333 28.7066 43.3333 29.1668V30.8335C43.3333 31.2937 43.7064 31.6668 44.1667 31.6668C44.6269 31.6668 45 31.2937 45 30.8335V29.1668C45 28.7066 44.6269 28.3335 44.1667 28.3335Z" fill="#FF7BA2"/>
<path d="M39.1667 28.3335C38.7064 28.3335 38.3333 28.7066 38.3333 29.1668V30.8335C38.3333 31.2937 38.7064 31.6668 39.1667 31.6668C39.6269 31.6668 40 31.2937 40 30.8335V29.1668C40 28.7066 39.6269 28.3335 39.1667 28.3335Z" fill="#FF7BA2"/>
<path d="M44.1667 33.3335C43.7064 33.3335 43.3333 33.7066 43.3333 34.1668V35.8335C43.3333 36.2937 43.7064 36.6668 44.1667 36.6668C44.6269 36.6668 45 36.2937 45 35.8335V34.1668C45 33.7066 44.6269 33.3335 44.1667 33.3335Z" fill="#FF7BA2"/>
<path d="M39.1667 33.3335C38.7064 33.3335 38.3333 33.7066 38.3333 34.1668V35.8335C38.3333 36.2937 38.7064 36.6668 39.1667 36.6668C39.6269 36.6668 40 36.2937 40 35.8335V34.1668C40 33.7066 39.6269 33.3335 39.1667 33.3335Z" fill="#FF7BA2"/>
<path d="M44.1667 38.3335C43.7064 38.3335 43.3333 38.7066 43.3333 39.1668V40.8335C43.3333 41.2937 43.7064 41.6668 44.1667 41.6668C44.6269 41.6668 45 41.2937 45 40.8335V39.1668C45 38.7066 44.6269 38.3335 44.1667 38.3335Z" fill="#FF7BA2"/>
<path d="M39.1667 38.3335C38.7064 38.3335 38.3333 38.7066 38.3333 39.1668V40.8335C38.3333 41.2937 38.7064 41.6668 39.1667 41.6668C39.6269 41.6668 40 41.2937 40 40.8335V39.1668C40 38.7066 39.6269 38.3335 39.1667 38.3335Z" fill="#FF7BA2"/>
<path d="M27.5 27.5C27.0397 27.5 26.6667 27.8731 26.6667 28.3333V30C26.6667 30.4602 27.0397 30.8333 27.5 30.8333C27.9602 30.8333 28.3333 30.4602 28.3333 30V28.3333C28.3333 27.8731 27.9602 27.5 27.5 27.5Z" fill="#FF7BA2"/>
</g>
<defs>
<clipPath id="clip0">
<rect width="50" height="50" fill="white"/>
</clipPath>
</defs>
</svg>
